<svg id="instagram-mobile" xmlns="http://www.w3.org/2000/svg" width="65.54" height="65.54" viewBox="0 0 65.54 65.54">
  <g id="Grupo_11" data-name="Grupo 11" transform="translate(0 0)">
    <g id="Grupo_10" data-name="Grupo 10">
      <path id="Caminho_33" data-name="Caminho 33" d="M26.416,32.972a6.551,6.551,0,1,0-6.559-6.563,6.551,6.551,0,0,0,6.559,6.563Z" transform="translate(6.361 6.368)" fill="#19386e"/>
      <path id="Caminho_34" data-name="Caminho 34" d="M37.212,20.279V13.96h-.823l-5.5.017.022,6.32Z" transform="translate(9.895 4.471)" fill="#19386e"/>
      <path id="Caminho_35" data-name="Caminho 35" d="M32.77,0A32.77,32.77,0,1,0,65.54,32.77,32.77,32.77,0,0,0,32.77,0ZM51.418,28.953V44.215a7.213,7.213,0,0,1-7.2,7.206H21.341a7.211,7.211,0,0,1-7.2-7.206V21.342a7.211,7.211,0,0,1,7.2-7.2H44.212a7.213,7.213,0,0,1,7.206,7.2Z" transform="translate(0 0)" fill="#19386e"/>
      <path id="Caminho_36" data-name="Caminho 36" d="M38.664,25.754a10.2,10.2,0,1,1-19.642-3.825H13.457V37.191a3.572,3.572,0,0,0,3.572,3.569H39.9a3.574,3.574,0,0,0,3.572-3.569V21.929H37.907a10.057,10.057,0,0,1,.757,3.825Z" transform="translate(4.31 7.024)" fill="#19386e"/>
    </g>
  </g>
</svg>
