<svg id="youtube-mobile" xmlns="http://www.w3.org/2000/svg" width="66.1" height="66.1" viewBox="0 0 66.1 66.1">
  <path id="Subtração_1" data-name="Subtração 1" d="M33.05,66.1A33.059,33.059,0,0,1,20.186,2.6,33.059,33.059,0,0,1,45.915,63.5,32.844,32.844,0,0,1,33.05,66.1ZM30.008,47.681a3.4,3.4,0,0,1,.868.113h3.747a2.918,2.918,0,0,1,.774-.1c.087,0,.176,0,.263.012.481.007.971.01,1.455.01,3.272,0,6.58-.159,9.832-.472a7.779,7.779,0,0,0,2.459-.6,5.538,5.538,0,0,0,3.262-4.519c.162-1.065.254-2.153.343-3.205.062-.731.125-1.483.212-2.221v-5.55l-.062-.689-.03-.333c-.094-1.048-.2-2.236-.309-3.371-.031-.338-.085-.679-.138-1.009l0-.029c-.544-3.54-2.245-5.109-5.87-5.417-3.569-.306-7.313-.454-11.447-.454a2.664,2.664,0,0,1-1.038-.095h-3.3a2.9,2.9,0,0,1-.779.107c-.086,0-.174,0-.26-.012-.418-.005-.842-.008-1.259-.008-3.193,0-6.422.158-9.6.469a7.328,7.328,0,0,0-3.191.989,5.26,5.26,0,0,0-2.5,3.824,36.753,36.753,0,0,0-.463,4.471,5.5,5.5,0,0,1-.061.55c-.013.087-.026.176-.036.263v6.745c.043.461.083.931.119,1.347v0c.084.974.172,1.981.284,2.968a6.539,6.539,0,0,0,1.748,4.087,6.591,6.591,0,0,0,4.1,1.7c3.1.3,6.253.456,9.368.456.392,0,.79,0,1.184-.007C29.792,47.686,29.9,47.681,30.008,47.681Zm-.569-8.052h0c-.15,0-.166-.2-.166-.629V33.756q0-.635,0-1.269v-.164c0-1.247,0-2.536-.007-3.811,0-.292.028-.448.1-.521a.17.17,0,0,1,.127-.049.933.933,0,0,1,.435.181c1.3.81,3.657,2.263,3.671,2.271.348.213,3.409,2.091,4.878,2.985.26.158.375.28.375.393s-.114.232-.394.4c-1.817,1.1-3.657,2.233-5.437,3.327l-.034.021c-.935.575-1.994,1.226-3.023,1.856A1.366,1.366,0,0,1,29.439,39.629Z" transform="translate(0)" fill="#19386e"/>
</svg>
